<svg xmlns="http://www.w3.org/2000/svg" width="1200" height="720" viewBox="0 0 1200 720">
  <rect width="1200" height="720" fill="#f6f8fb"/>
  <rect x="40" y="32" width="1120" height="72" rx="16" fill="#111827"/>
  <text x="70" y="78" font-family="Arial" font-size="28" font-weight="700" fill="#ffffff">AI Response Quality Analysis</text>
  <text x="900" y="78" font-family="Arial" font-size="18" fill="#d1d5db">Portfolio Case</text>

  <g font-family="Arial">
    <rect x="40" y="130" width="208" height="105" rx="14" fill="#ffffff" stroke="#dbe3ef"/>
    <text x="62" y="164" font-size="16" fill="#6b7280">Reviewed</text>
    <text x="62" y="208" font-size="30" font-weight="700" fill="#111827">12</text>

    <rect x="268" y="130" width="208" height="105" rx="14" fill="#ffffff" stroke="#dbe3ef"/>
    <text x="290" y="164" font-size="16" fill="#6b7280">Avg Score</text>
    <text x="290" y="208" font-size="30" font-weight="700" fill="#111827">4.08</text>

    <rect x="496" y="130" width="208" height="105" rx="14" fill="#ffffff" stroke="#dbe3ef"/>
    <text x="518" y="164" font-size="16" fill="#6b7280">Approval Rate</text>
    <text x="518" y="208" font-size="30" font-weight="700" fill="#111827">67%</text>

    <rect x="724" y="130" width="208" height="105" rx="14" fill="#ffffff" stroke="#dbe3ef"/>
    <text x="746" y="164" font-size="16" fill="#6b7280">Rework Rate</text>
    <text x="746" y="208" font-size="30" font-weight="700" fill="#111827">25%</text>

    <rect x="952" y="130" width="208" height="105" rx="14" fill="#ffffff" stroke="#dbe3ef"/>
    <text x="974" y="164" font-size="16" fill="#6b7280">Review Time</text>
    <text x="974" y="208" font-size="30" font-weight="700" fill="#111827">7.3m</text>
  </g>

  <rect x="40" y="265" width="540" height="285" rx="16" fill="#ffffff" stroke="#dbe3ef"/>
  <text x="70" y="305" font-family="Arial" font-size="20" font-weight="700" fill="#111827">Quality score by use case</text>
  <rect x="90" y="470" width="65" height="40" fill="#9ca3af"/>
  <rect x="190" y="380" width="65" height="130" fill="#4b5563"/>
  <rect x="290" y="410" width="65" height="100" fill="#6b7280"/>
  <rect x="390" y="345" width="65" height="165" fill="#374151"/>
  <line x1="75" y1="510" x2="520" y2="510" stroke="#d1d5db"/>
  <text x="82" y="535" font-family="Arial" font-size="13" fill="#6b7280">Draft</text>
  <text x="178" y="535" font-family="Arial" font-size="13" fill="#6b7280">Class</text>
  <text x="280" y="535" font-family="Arial" font-size="13" fill="#6b7280">Explain</text>
  <text x="382" y="535" font-family="Arial" font-size="13" fill="#6b7280">Summary</text>

  <rect x="620" y="265" width="540" height="285" rx="16" fill="#ffffff" stroke="#dbe3ef"/>
  <text x="650" y="305" font-family="Arial" font-size="20" font-weight="700" fill="#111827">Issue distribution</text>
  <circle cx="790" cy="410" r="80" fill="#374151"/>
  <path d="M790 410 L790 330 A80 80 0 0 1 858 368 Z" fill="#9ca3af"/>
  <path d="M790 410 L858 368 A80 80 0 0 1 850 455 Z" fill="#6b7280"/>
  <path d="M790 410 L850 455 A80 80 0 0 1 730 480 Z" fill="#d1d5db"/>
  <text x="910" y="370" font-family="Arial" font-size="15" fill="#374151">Approved</text>
  <text x="910" y="400" font-family="Arial" font-size="15" fill="#374151">Needs rework</text>
  <text x="910" y="430" font-family="Arial" font-size="15" fill="#374151">Rejected</text>
  <text x="910" y="460" font-family="Arial" font-size="15" fill="#374151">Other</text>

  <rect x="40" y="580" width="1120" height="95" rx="16" fill="#ffffff" stroke="#dbe3ef"/>
  <text x="70" y="620" font-family="Arial" font-size="20" font-weight="700" fill="#111827">Analytical story</text>
  <text x="70" y="653" font-family="Arial" font-size="16" fill="#374151">The project turns AI review data into quality metrics, prompt version comparison and improvement priorities.</text>
</svg>
